<?xml version="1.0" encoding="UTF-8"?>
<svg id="home_work" data-name="home/work" xmlns="http://www.w3.org/2000/svg" viewBox="0 0 20 20">
  <defs>
    <style>
      .cls-1 {
        fill: #fff;
      }
    </style>
  </defs>
  <rect class="cls-1" x=".17" y="2.9" width="19.67" height="14.2" rx="2.46" ry="2.46"/>
  <path d="m6.69,14.34c.93,0,1.66-.26,2.18-.77s.78-1.24.78-2.18v-5.48h-3.45v1.42h1.9v4.06c0,.47-.12.84-.36,1.1s-.58.39-1.02.39-.78-.13-1.02-.39-.36-.62-.36-1.09h-1.61c0,.93.26,1.66.77,2.18s1.24.78,2.19.78Z"/>
  <path d="m12.26,11.84h1c1.04,0,1.85-.27,2.42-.82s.86-1.31.86-2.31c0-.89-.29-1.59-.86-2.08s-1.38-.74-2.42-.74h-2.55v8.32h1.55v-2.38Zm1-4.51c.51,0,.91.13,1.19.39s.42.62.42,1.1c0,.5-.14.9-.42,1.18s-.67.42-1.19.42h-1v-3.09h1Z"/>
</svg>