<?xml version="1.0" encoding="UTF-8"?>
<svg id="Layer_1" data-name="Layer 1" xmlns="http://www.w3.org/2000/svg" viewBox="0 0 150 150">
  <path d="m113.97,106.17c6.78-8.59,10.84-19.42,10.84-31.19,0-27.82-22.63-50.45-50.45-50.45s-50.45,22.63-50.45,50.45,22.63,50.45,50.45,50.45c11.77,0,22.6-4.06,31.19-10.84l7.68,7.68c1.16,1.16,2.69,1.74,4.21,1.74s3.05-.58,4.21-1.74c2.32-2.32,2.32-6.09,0-8.42l-7.68-7.68Zm-75.32-31.19c0-19.69,16.02-35.71,35.71-35.71s35.71,16.02,35.71,35.71-16.02,35.71-35.71,35.71-35.71-16.02-35.71-35.71Z"/>
</svg>