<?xml version="1.0" encoding="UTF-8"?>
<svg id="home_work" data-name="home/work" xmlns="http://www.w3.org/2000/svg" viewBox="0 0 20 20">
  <!-- <defs>
    <style>
      .cls-1 {
        fill: #fff;
      }
    </style>
  </defs> -->
  <path class="cls-1" d="m13.26,7.33h-1v3.09h1c.51,0,.91-.14,1.19-.42s.42-.67.42-1.18c0-.48-.14-.84-.42-1.1s-.67-.39-1.19-.39Z"/>
  <path class="cls-1" d="m17.37,2.9H2.63C1.27,2.9.17,4,.17,5.36v9.28c0,1.36,1.1,2.46,2.46,2.46h14.74c1.36,0,2.46-1.1,2.46-2.46V5.36c0-1.36-1.1-2.46-2.46-2.46Zm-7.72,8.49c0,.94-.26,1.66-.78,2.18s-1.25.77-2.18.77-1.67-.26-2.19-.78-.77-1.24-.77-2.18h1.61c0,.47.12.83.36,1.09s.58.39,1.02.39.78-.13,1.02-.39.36-.62.36-1.1v-4.06h-1.9v-1.42h3.45v5.48Zm6.04-.37c-.57.54-1.38.82-2.42.82h-1v2.38h-1.55V5.9h2.55c1.04,0,1.85.25,2.42.74s.86,1.18.86,2.08c0,.99-.29,1.76-.86,2.31Z"/>
</svg>