<?xml version="1.0" encoding="UTF-8"?>
<svg id="Layer_1" data-name="Layer 1" xmlns="http://www.w3.org/2000/svg" viewBox="0 0 150 150">
  <path d="m127.28,114.55l-16.11-16.11c5.59-8.07,8.87-17.85,8.87-28.38,0-27.56-22.42-49.98-49.98-49.98s-49.98,22.42-49.98,49.98,22.42,49.98,49.98,49.98c10.54,0,20.31-3.28,28.38-8.87l16.1,16.1c1.76,1.76,4.06,2.64,6.36,2.64s4.61-.88,6.36-2.64c3.51-3.51,3.51-9.21,0-12.73Zm-90.2-44.49c0-18.19,14.8-32.98,32.98-32.98s32.98,14.8,32.98,32.98-14.8,32.98-32.98,32.98-32.98-14.8-32.98-32.98Z"/>
</svg>