<?xml version="1.0" encoding="UTF-8"?>
<svg id="Layer_1" data-name="Layer 1" xmlns="http://www.w3.org/2000/svg" viewBox="0 0 150 150">
  <path d="m122.36,62.85h-6.39c-.86-2.88-2-5.64-3.41-8.24l4.52-4.52c2.38-2.38,2.38-6.23,0-8.61l-8.57-8.57c-2.38-2.38-6.23-2.38-8.61,0l-4.52,4.52c-2.59-1.41-5.35-2.56-8.24-3.41v-6.39c0-3.36-2.73-6.09-6.09-6.09h-12.11c-3.36,0-6.09,2.73-6.09,6.09v6.39c-2.88.86-5.64,2-8.24,3.41l-4.52-4.52c-2.38-2.38-6.23-2.38-8.61,0l-8.57,8.57c-2.38,2.38-2.38,6.23,0,8.61l4.52,4.52c-1.41,2.59-2.56,5.35-3.41,8.24h-6.39c-3.36,0-6.09,2.73-6.09,6.09v12.11c0,3.36,2.73,6.09,6.09,6.09h6.39c.86,2.88,2,5.64,3.41,8.24l-4.52,4.52c-2.38,2.38-2.38,6.23,0,8.61l8.57,8.57c2.38,2.38,6.23,2.38,8.61,0l4.52-4.52c2.59,1.41,5.35,2.56,8.24,3.41v6.39c0,3.36,2.73,6.09,6.09,6.09h12.11c3.36,0,6.09-2.73,6.09-6.09v-6.39c2.88-.86,5.64-2,8.24-3.41l4.52,4.52c2.38,2.38,6.23,2.38,8.61,0l8.57-8.57c2.38-2.38,2.38-6.23,0-8.61l-4.52-4.52c1.41-2.59,2.56-5.35,3.41-8.24h6.39c3.36,0,6.09-2.73,6.09-6.09v-12.11c0-3.36-2.73-6.09-6.09-6.09Zm-27.05,12.15c0,11.2-9.11,20.31-20.31,20.31s-20.31-9.11-20.31-20.31,9.11-20.31,20.31-20.31,20.31,9.11,20.31,20.31Z"/>
</svg>