<?xml version="1.0" encoding="UTF-8"?>
<svg id="Layer_1" data-name="Layer 1" xmlns="http://www.w3.org/2000/svg" viewBox="0 0 150 150">
  <path d="m116.07,31.16H33.93c-9.77,0-17.72,7.95-17.72,17.73v51.7c0,9.77,7.95,17.72,17.72,17.72h82.14c2.58,0,5.02-.56,7.23-1.56,1.63-.52,3.08-1.45,4.22-2.66,3.83-3.25,6.27-8.1,6.27-13.51v-51.7c0-9.77-7.95-17.73-17.73-17.73Zm-56.25,30.41l4.24-.62c.54-.08,1.01-.42,1.25-.91l1.9-3.85c.61-1.24,2.38-1.24,2.99,0l1.9,3.85c.24.49.71.83,1.25.91l4.24.62c1.37.2,1.91,1.88.92,2.84l-3.07,2.99c-.39.38-.57.93-.48,1.47l.72,4.23c.23,1.36-1.2,2.4-2.42,1.76l-3.8-2c-.49-.26-1.07-.26-1.55,0l-3.8,2c-1.22.64-2.65-.4-2.42-1.76l.72-4.23c.09-.54-.09-1.09-.48-1.47l-3.07-2.99c-.99-.96-.44-2.64.92-2.84Zm-31.24-13.92l6.04-.88c.77-.11,1.44-.6,1.79-1.3l2.7-5.48c.87-1.76,3.38-1.76,4.26,0l2.7,5.48c.35.7,1.01,1.19,1.79,1.3l6.04.88c1.95.28,2.72,2.67,1.31,4.05l-4.37,4.26c-.56.55-.81,1.33-.68,2.1l1.03,6.02c.33,1.94-1.7,3.42-3.44,2.5l-5.4-2.84c-.69-.36-1.52-.36-2.21,0l-5.4,2.84c-1.74.92-3.77-.56-3.44-2.5l1.03-6.02c.13-.77-.12-1.55-.68-2.1l-4.37-4.26c-1.41-1.37-.63-3.76,1.31-4.05Zm97.22,52.28H24.2v-15.8h101.59v15.8Zm0-34.06h-39.16v-15.32h39.16v15.32Z"/>
</svg>