<?xml version="1.0" encoding="UTF-8"?>
<svg id="home_work" data-name="home/work" xmlns="http://www.w3.org/2000/svg" viewBox="0 0 20 20">
  <defs>
    <style>
      .cls-1 {
        fill: #fff;
      }
    </style>
  </defs>
  <path class="cls-1" d="m16.53,15.43c1.19-1.49,1.9-3.38,1.9-5.43,0-4.82-3.92-8.75-8.75-8.75S.93,5.18.93,10s3.92,8.75,8.75,8.75c2.05,0,3.94-.72,5.43-1.9l1.86,1.86c.2.2.45.29.71.29s.51-.1.71-.29c.39-.39.39-1.02,0-1.41l-1.86-1.86ZM2.43,10c0-4,3.25-7.25,7.25-7.25s7.25,3.25,7.25,7.25-3.25,7.25-7.25,7.25-7.25-3.25-7.25-7.25Z"/>
</svg>