<?xml version="1.0" encoding="UTF-8"?>
<svg id="home_work" data-name="home/work" xmlns="http://www.w3.org/2000/svg" viewBox="0 0 20 20">
  <defs>
    <style>
      .cls-1 {
        fill: #fff;
      }
    </style>
  </defs>
  <rect class="cls-1" x=".17" y="2.9" width="19.67" height="14.2" rx="2.46" ry="2.46"/>
  <polygon points="4.16 5.9 4.16 7.33 4.16 9.34 4.16 10.77 4.16 12.8 4.16 14.22 5.71 14.22 9.87 14.22 9.87 12.8 5.71 12.8 5.71 10.77 8.82 10.77 8.82 9.34 5.71 9.34 5.71 7.33 9.87 7.33 9.87 5.9 5.71 5.9 4.16 5.9"/>
  <polygon points="14.65 12.41 14.43 12.41 12.97 5.9 12.13 5.9 11.71 5.9 10.64 5.9 10.64 14.22 12.13 14.22 12.13 7.72 12.35 7.72 13.81 14.22 14.65 14.22 14.83 14.22 16.14 14.22 16.14 5.9 14.65 5.9 14.65 12.41"/>
</svg>