<?xml version="1.0" encoding="UTF-8"?>
<svg id="home_work" data-name="home/work" xmlns="http://www.w3.org/2000/svg" viewBox="0 0 20 20">
  <!-- <defs>
    <style>
      .cls-1 {
        fill: #fff;
      }
    </style>
  </defs> -->
  <path class="cls-1" d="m17.37,2.9H2.63C1.27,2.9.17,4,.17,5.36v9.28c0,1.36,1.1,2.46,2.46,2.46h14.74c1.36,0,2.46-1.1,2.46-2.46V5.36c0-1.36-1.1-2.46-2.46-2.46Zm-7.5,4.43h-4.16v2.02h3.11v1.43h-3.11v2.03h4.16v1.42h-5.71V5.9h5.71v1.42Zm6.27,6.9h-2.33l-1.46-6.5h-.22v6.5h-1.49V5.9h2.33l1.46,6.5h.22v-6.5h1.49v8.32Z"/>
</svg>