<?xml version="1.0" encoding="UTF-8"?>
<svg id="Layer_1" data-name="Layer 1" xmlns="http://www.w3.org/2000/svg" viewBox="0 0 150 150">
  <path d="m98.83,24.53h-47.65c-12.41,0-22.5,10.09-22.5,22.5v55.9c0,12.41,10.09,22.5,22.5,22.5h47.65c12.41,0,22.5-10.09,22.5-22.5v-55.9c0-12.41-10.09-22.5-22.5-22.5Zm-1.68,72.63h-44.3c-1.93,0-3.5-1.57-3.5-3.5s1.57-3.5,3.5-3.5h44.3c1.93,0,3.5,1.57,3.5,3.5s-1.57,3.5-3.5,3.5Zm0-18.68h-44.3c-1.93,0-3.5-1.57-3.5-3.5s1.57-3.5,3.5-3.5h44.3c1.93,0,3.5,1.57,3.5,3.5s-1.57,3.5-3.5,3.5Zm0-18.68h-44.3c-1.93,0-3.5-1.57-3.5-3.5s1.57-3.5,3.5-3.5h44.3c1.93,0,3.5,1.57,3.5,3.5s-1.57,3.5-3.5,3.5Z"/>
</svg>