<?xml version="1.0" encoding="UTF-8"?>
<svg id="Layer_1" data-name="Layer 1" xmlns="http://www.w3.org/2000/svg" viewBox="0 0 150 150">
  <path d="m88.16,75l31.59-31.59c3.63-3.63,3.63-9.52,0-13.16-3.63-3.63-9.52-3.63-13.16,0l-31.59,31.59-31.59-31.59c-3.63-3.63-9.52-3.63-13.16,0s-3.63,9.52,0,13.16l31.59,31.59-31.59,31.59c-3.63,3.63-3.63,9.52,0,13.16,1.82,1.82,4.2,2.72,6.58,2.72s4.76-.91,6.58-2.72l31.59-31.59,31.59,31.59c1.82,1.82,4.2,2.72,6.58,2.72s4.76-.91,6.58-2.72c3.63-3.63,3.63-9.52,0-13.16l-31.59-31.59Z"/>
</svg>