<svg id="Layer_1_copy" data-name="Layer 1 copy" xmlns="http://www.w3.org/2000/svg" viewBox="0 0 682.63 248.39"><defs><style>.cls-1{fill:#50c5ee;}.cls-2{fill:#fff;}</style></defs><path class="cls-1" d="M216.49,305.81c0-6.77,5.21-11.44,13.38-11.44s13.37,4.67,13.37,11.44-5.29,11.43-13.37,11.43S216.49,312.49,216.49,305.81Zm2,23.41h22.63V415H218.51Z" transform="translate(-208.22 -294.37)"/><path class="cls-2" d="M258,415V302.77h49.07c21.78,0,34.77,10.66,34.77,28a24.28,24.28,0,0,1-20.3,24v1.39c14.85,1.09,25.66,12.29,25.66,26.76,0,19.68-14.85,32.12-38.8,32.12Zm23.49-65.72h17.65c12.68,0,19.6-5.21,19.6-14.23s-6.46-14.31-17.66-14.31H281.47ZM302.39,397c13.53,0,20.84-5.67,20.84-16.17,0-10.27-7.54-15.71-21.39-15.71H281.47V397Z" transform="translate(-208.22 -294.37)"/><path class="cls-2" d="M431.21,390.58c-3.42,16.18-18.2,26.29-39.19,26.29-26.14,0-41.54-16.49-41.54-44.33s15.71-45.19,41.22-45.19c25.28,0,40.21,16.1,40.21,43.32v6.92H373v1.17c.31,12.75,7.78,20.69,19.6,20.69,8.94,0,15.09-3.19,17.5-8.87Zm-58.09-27.46h36.55c-.47-11.35-7.31-18.43-17.89-18.43S373.89,352,373.12,363.12Z" transform="translate(-208.22 -294.37)"/><path class="cls-2" d="M442.91,296.47h22.63V415H442.91Z" transform="translate(-208.22 -294.37)"/><path class="cls-2" d="M478.88,305.81c0-6.77,5.21-11.44,13.37-11.44s13.38,4.67,13.38,11.44-5.29,11.43-13.38,11.43S478.88,312.49,478.88,305.81Zm2,23.41h22.63V415H480.9Z" transform="translate(-208.22 -294.37)"/><path class="cls-2" d="M597.83,390.58c-3.43,16.18-18.2,26.29-39.2,26.29-26.13,0-41.53-16.49-41.53-44.33s15.71-45.19,41.22-45.19c25.27,0,40.21,16.1,40.21,43.32v6.92H539.65v1.17c.31,12.75,7.78,20.69,19.6,20.69,8.94,0,15.09-3.19,17.5-8.87Zm-58.1-27.46h36.55c-.46-11.35-7.31-18.43-17.89-18.43S540.51,352,539.73,363.12Z" transform="translate(-208.22 -294.37)"/><path class="cls-2" d="M654.32,415H628.81L599,329.22h24.35l17.73,63.93h1.4l17.58-63.93H684Z" transform="translate(-208.22 -294.37)"/><path class="cls-2" d="M764,390.58c-3.42,16.18-18.2,26.29-39.19,26.29-26.14,0-41.54-16.49-41.54-44.33S699,327.35,724.5,327.35c25.28,0,40.21,16.1,40.21,43.32v6.92H705.84v1.17c.31,12.75,7.78,20.69,19.6,20.69,8.94,0,15.09-3.19,17.5-8.87Zm-58.09-27.46h36.55c-.47-11.35-7.31-18.43-17.89-18.43S706.69,352,705.92,363.12Z" transform="translate(-208.22 -294.37)"/><path class="cls-1" d="M773.07,305.81c0-6.77,5.21-11.44,13.37-11.44s13.38,4.67,13.38,11.44-5.29,11.43-13.38,11.43S773.07,312.49,773.07,305.81Zm2,23.41h22.63V415H775.09Z" transform="translate(-208.22 -294.37)"/><path class="cls-1" d="M812.3,329.22h21.93V343h1.4c4-9.64,12.68-15.63,25.36-15.63,19,0,29.32,11.66,29.32,32.2V415H867.68V364.91c0-11.82-5.06-18-15.79-18-10.5,0-17,7.39-17,18.67V415H812.3Z" transform="translate(-208.22 -294.37)"/><path class="cls-1" d="M230,510c1.05,8.74,9.86,14.35,22.56,14.35,11.73,0,20-5.68,20-13.82,0-6.88-5.38-10.84-18.61-13.68l-14-3c-19.65-4.11-29.29-14.35-29.29-30.78,0-20.32,16.36-33.7,41.24-33.7,23.76,0,40.57,13.3,41.24,32.5H271.94c-1-8.51-9-14.19-19.87-14.19-11.28,0-18.75,5.23-18.75,13.44,0,6.65,5.15,10.46,17.78,13.15l13,2.77c21.66,4.55,31,13.89,31,30.63,0,21.74-16.66,35-43.7,35-25.7,0-42.36-12.62-43.18-32.72Z" transform="translate(-208.22 -294.37)"/><path class="cls-1" d="M396.7,540H373.54l-14.72-56.85h-1.34L342.91,540H320.05l-22-82.4h22l12.26,59.09h1.34l14.42-59.09h20.77l14.49,59.09h1.35L397,457.6h21.59Z" transform="translate(-208.22 -294.37)"/><path class="cls-1" d="M416.86,498.76c0-26.67,15.47-42.95,40.57-42.95S498,472,498,498.76c0,27-15.24,43-40.57,43S416.86,525.73,416.86,498.76Zm58.8,0c0-15.84-6.73-25.18-18.23-25.18s-18.23,9.34-18.23,25.18c0,16.06,6.58,25.25,18.23,25.25S475.66,514.75,475.66,498.76Z" transform="translate(-208.22 -294.37)"/><path class="cls-1" d="M505.91,457.6H527v13.15h1.34c2.17-8.22,10.68-14.5,21.14-14.5A30.54,30.54,0,0,1,558,457.3v19.8c-1.72-.68-6.8-1.35-10.31-1.35-11.88,0-20,7-20,18.6V540H505.91Z" transform="translate(-208.22 -294.37)"/><path class="cls-1" d="M556.78,498.69c0-26.23,12.85-42.44,33.54-42.44,11.13,0,20.32,5.38,24.58,14.5h1.27v-44.6h21.74V540H616.84V527.08H615.5c-4.41,8.89-13.75,14.19-25.18,14.19C569.55,541.27,556.78,525,556.78,498.69Zm22.34.07c0,15.24,6.94,24.36,18.6,24.36s18.68-9.19,18.68-24.28-7.1-24.36-18.68-24.36S579.12,483.67,579.12,498.76Z" transform="translate(-208.22 -294.37)"/><path class="cls-1" d="M657,475.53h-13.3V458.42H657v-8.07c0-16.66,9.94-23.53,29.29-23.53a57.42,57.42,0,0,1,10.16.82v15.61a39.4,39.4,0,0,0-7.1-.59c-7.62,0-11.06,3-11.06,9.71v6.05H695.8v17.11h-17V540H657Z" transform="translate(-208.22 -294.37)"/><path class="cls-1" d="M701.55,435.11c0-6.5,5-11,12.85-11s12.85,4.48,12.85,11-5.08,11-12.85,11S701.55,441.54,701.55,435.11Zm1.94,22.49h21.74V540H703.49Z" transform="translate(-208.22 -294.37)"/><path class="cls-1" d="M769.83,455.81c20.92,0,33.24,8.74,34.44,24.5h-20.1c-1.12-5.31-6.13-8.59-14.19-8.59-7.77,0-13.53,3.51-13.53,8.74,0,4,3.52,6.5,11.14,8.22L783.05,492c16,3.51,23.16,10.23,23.16,22.56,0,16.44-14.72,27.19-36.31,27.19S735,532.9,733.52,517.07h21.22c1.64,5.6,6.94,8.81,15.61,8.81,8.44,0,14.27-3.51,14.27-8.81,0-4-3.14-6.5-10.38-8.07l-15-3.37c-16-3.51-23.75-11.13-23.75-23.83C735.54,466.19,749.28,455.81,769.83,455.81Z" transform="translate(-208.22 -294.37)"/><path class="cls-1" d="M815,426.15h21.37v45h1.34c3.81-9.41,12.77-15.09,24.88-15.09,17.7,0,28.24,11.13,28.24,30.93v53H869.11V492.11c0-11.43-5.31-17.33-15.17-17.33-10.91,0-17.18,7.25-17.18,17.93V540H815Z" transform="translate(-208.22 -294.37)"/></svg>