<?xml version="1.0" encoding="UTF-8"?>
<svg id="Layer_1" data-name="Layer 1" xmlns="http://www.w3.org/2000/svg" viewBox="0 0 150 150">

  <path class="cls-1" d="m109.49,139.46s-.04-.1-.03-.16l-1.24-2.02s-.04-.1-.03-.15l-.15-.21c-.14-.27-.29-.54-.43-.8-.57-.97-1.15-1.94-1.72-2.91-.56-1-1.12-2-1.68-3.01-.91-1.57-1.82-3.13-2.74-4.7-1.15-2-2.31-4-3.46-6h0c-.05-.06-.1-.13-.15-.19-.03-.05-.04-.11-.03-.17-.45-.74-.9-1.48-1.35-2.22-.05-.01-.07-.04-.08-.09-.12-.24-.24-.49-.36-.73-.37-.63-.74-1.25-1.11-1.88-.06-.13-.12-.25-.18-.38-.43-.72-.86-1.44-1.29-2.16-.33-.43-.52-1.05-1.27-.9H2.33c-.63.01-1.26.04-1.89.03-.42,0-.56.11-.32.5.5.91,1.01,1.81,1.51,2.72.17.26.39.51.51.79.23.5.33,1.06.61,1.52.66,1.07,1.4,2.1,2.11,3.15.07.17.13.34.2.52l1.29,2.2c.52.85,1.05,1.71,1.57,2.56.06.11.12.22.17.33.4.69.79,1.37,1.19,2.06,1.14,1.99,2.28,3.97,3.42,5.96.25.42.49.84.74,1.25.37.49.74.98,1.1,1.47.47.47.93.94,1.4,1.4.53.42,1.07.85,1.6,1.27.38.25.75.5,1.13.75.97.43,1.94.85,2.91,1.28.73.18,1.46.37,2.19.55.12.01.23.02.35.03h.91c6.99.02,13.97.05,20.96.05,21.05,0,42.1,0,63.16,0,.42,0,.84.01,1.27.02-.26-.51-.51-1.02-.77-1.52-.05-.07-.1-.13-.15-.2Z"/>
  <path class="cls-1" d="m149.7,108.06c-.57-1.58-1.16-3.16-1.74-4.73-.85-1.4-1.7-2.79-2.53-4.19-.21-.35-.37-.72-.56-1.09-1.09-1.94-2.18-3.88-3.26-5.81-.12-.18-.25-.36-.38-.54l-1.08-1.99c-.54-.91-1.08-1.83-1.62-2.74-.12-.24-.24-.48-.36-.72-.36-.61-.72-1.22-1.08-1.82-1.1-1.93-2.2-3.86-3.31-5.79h.01c-.05-.06-.1-.12-.15-.19-.93-1.66-1.85-3.31-2.78-4.97-.23-.4-.46-.81-.69-1.21-.18-.3-.37-.6-.55-.9l-2-3.63c-.61-1.03-1.22-2.06-1.83-3.09h.01c-.05-.06-.1-.12-.15-.19-.8-1.39-1.59-2.79-2.39-4.18l-3.45-6.17c-.49-.84-.97-1.69-1.46-2.53-.54-.91-1.08-1.83-1.62-2.74-.12-.24-.24-.48-.36-.72-.37-.6-.73-1.21-1.1-1.81-1.09-1.94-2.19-3.88-3.28-5.82-1.02-1.76-2.04-3.51-3.05-5.27-.19-.36-.37-.73-.56-1.09-.26-.44-.52-.87-.78-1.31-1.2-2.11-2.39-4.21-3.59-6.32-.91-1.57-1.81-3.13-2.72-4.7-1.15-2-2.3-4-3.45-6.01-.61-.78-1.21-1.57-1.82-2.35-.3-.26-.6-.52-.9-.78-2.06-1.71-4.33-3.01-7.01-3.46-.93-.16-1.87-.37-2.81-.38-8.73-.03-17.47-.02-26.35-.02.83,1.52,1.63,2.97,2.42,4.42.17.26.34.52.5.79.86,1.49,1.72,2.98,2.57,4.48.24.42.48.84.73,1.26.26.44.51.88.77,1.32.58,1.02,1.16,2.03,1.75,3.05.03.05.04.1.03.15.48.8.96,1.6,1.44,2.4.92,1.61,1.85,3.22,2.77,4.83.07.12.1.27.15.4,1.14,1.95,2.28,3.89,3.42,5.84.2.36.4.72.59,1.08.3.55.61,1.09.91,1.64.49.8.98,1.6,1.47,2.41.16.29.33.58.49.87.32.56.64,1.11.96,1.67,1.14,1.99,2.28,3.97,3.42,5.96.98,1.71,1.96,3.42,2.94,5.13.27.47.55.94.82,1.4.26.48.52.96.78,1.45.9,1.52,1.8,3.04,2.7,4.56.21.35.38.72.57,1.08,1.03,1.81,2.06,3.62,3.1,5.43.17.26.36.52.52.79.9,1.55,1.79,3.11,2.69,4.66.07.17.15.35.22.52.43.73.86,1.47,1.29,2.2.43.74.86,1.48,1.29,2.22.1.17.21.34.31.52.49.9.99,1.8,1.48,2.71.79,1.32,1.59,2.64,2.37,3.97.25.42.47.86.7,1.3.24.42.49.84.73,1.25l.92,1.66,1.47,2.44c.17.34.34.67.51,1.01.31.51.63,1.03.94,1.54,1.14,1.97,2.27,3.95,3.41,5.92.98,1.72,1.96,3.43,2.94,5.15.29.52.59,1.04.88,1.56l.58.96c.59,1.02,1.18,2.04,1.77,3.06.06.17.13.34.19.51.49.8.97,1.59,1.46,2.39.98,1.71,1.96,3.41,2.93,5.12,1.08,1.86,2.15,3.72,3.23,5.58l.55,1.08c.37.61.73,1.23,1.1,1.84.43.75.86,1.5,1.3,2.25.23.4.45.8.68,1.2.32.56.64,1.12.96,1.67,1.06,1.81,2.13,3.62,3.22,5.47.3-.45.58-.87.87-1.29.09-.15.17-.29.26-.44.01-.06.02-.13.03-.19.11-.17.21-.34.32-.51l3.38-5.77c.44-.74.88-1.49,1.31-2.23l.36-.72c.31-.55.63-1.09.94-1.64.05-.07.1-.13.15-.2h-.01c.49-.84.98-1.69,1.47-2.55.12-.23.25-.47.37-.7,1.14-1.92,2.28-3.84,3.42-5.76.1-.26.21-.53.31-.79.46-1.21.92-2.42,1.38-3.63.04-.07.09-.14.13-.2,0-.06,0-.11.04-.15.12-1.47.25-2.95.37-4.42-.02-.22-.04-.43-.06-.65-.08-.36-.11-.73-.24-1.08Z"/>
  <path class="cls-1" d="m15.94,89.36h62.66c.65-.03,1.31-.06,1.97-.08-.41-.71-.83-1.41-1.24-2.12-1.7-2.96-3.41-5.93-5.11-8.89-.64-1.05-1.3-2.1-1.93-3.16-.34-.57-.63-1.16-.95-1.75-1.08-1.88-2.17-3.75-3.25-5.62-.14-.24-.27-.48-.41-.72-.36-.67-.72-1.34-1.08-2-.48-.79-.96-1.57-1.45-2.36-.12-.24-.24-.49-.36-.73-.37-.6-.73-1.21-1.1-1.81-1.22-2.12-2.43-4.23-3.65-6.35-.05-.03-.12-.04-.15-.09-.91-1.61-1.81-3.22-2.72-4.83-.19-.36-.38-.72-.56-1.08-.26-.44-.51-.88-.77-1.32-1.14-1.99-2.28-3.97-3.42-5.96-.54-.85-1.1-1.68-1.61-2.54-.46-.77-.86-1.57-1.29-2.36-1.01-1.7-2.01-3.4-3.07-5.18-.19.23-.35.42-.51.6-.26.44-.51.87-.77,1.31-1.09,1.88-2.18,3.76-3.26,5.63-.42.73-.85,1.46-1.27,2.19l-.51.86c-.43.74-.86,1.48-1.29,2.22-.37.61-.74,1.22-1.1,1.84-.18.36-.36.72-.55,1.08-1.08,1.86-2.15,3.72-3.23,5.58-.99,1.71-1.98,3.42-2.98,5.12-.41.73-.82,1.45-1.24,2.18-.12.18-.23.36-.35.55-.61,1.04-1.22,2.07-1.83,3.11-.18.36-.37.71-.55,1.07-.35.59-.7,1.18-1.05,1.77-.93,1.65-1.86,3.3-2.8,4.95-1.12,1.92-2.25,3.85-3.37,5.77-.32.56-.64,1.11-.96,1.67-.23.4-.46.8-.69,1.2-.44.75-.89,1.5-1.33,2.25-.29.49-.58.99-.87,1.48-.24.42-.48.83-.71,1.25-.38.7-.77,1.4-1.14,2.11-.55,1.05-1.09,2.11-1.63,3.16.25,0,.5.01.75.02h2.72Z"/>
</svg>