<?xml version="1.0" encoding="UTF-8"?>
<svg id="Layer_1" data-name="Layer 1" xmlns="http://www.w3.org/2000/svg" viewBox="0 0 150 150">

  <path class="cls-1" d="m149.86,74.15c-.28-4.16-.41-8.38-1.21-12.45-1.46-7.42-4.07-14.45-7.78-21.11-4.38-7.87-9.87-14.75-16.64-20.65-4.75-4.14-9.92-7.7-15.58-10.4-4.3-2.05-8.87-3.58-13.41-5.09-5.32-1.77-10.87-2.49-16.46-2.63-3.88-.1-7.78.02-11.66.3-2.94.21-5.88.65-8.75,1.3-6.66,1.49-12.99,3.86-19.03,7.11-5.84,3.14-11.15,6.99-15.97,11.5-4.72,4.42-8.71,9.47-12.14,14.98C5.47,46.28,1.76,56.25.57,67.13c-.12,1.11-.38,2.2-.57,3.29v12.61c.1.24.27.47.31.72.52,3.44.75,6.94,1.57,10.3,2.56,10.61,7.23,20.21,14.02,28.82,4.22,5.35,8.93,10.19,14.36,14.25,6.38,4.77,13.44,8.36,21.03,10.85,2.55.83,5.04-1,5.03-3.65,0-1.96,0-3.91,0-5.87v-7.98c-1.97.23-3.77.63-5.58.61-2.84-.03-5.7-.15-8.49-.59-3.92-.62-7.34-2.42-9.54-5.85-1.24-1.94-2-4.18-3.11-6.21-1.72-3.15-3.57-6.2-6.95-7.99-1-.53-1.8-1.57-2.48-2.52-.23-.33.02-1.47.36-1.63.69-.34,1.59-.42,2.38-.35,3.66.31,6.8,1.9,9.26,4.52,1.72,1.83,2.91,4.13,4.52,6.07,2.55,3.06,5.61,5.42,9.88,5.19,2.57-.14,5.14-.49,7.67-.94.84-.15,2.12-.79,2.26-1.42.78-3.52,1.96-6.79,4.76-9.57-1.54-.14-2.79-.17-3.99-.39-5.36-.99-10.56-2.45-15.34-5.23-3.83-2.23-7.09-5.07-9.35-8.84-3.97-6.61-5.36-13.98-5.57-21.58-.06-2.09.28-4.21.57-6.3.72-5.28,2.95-9.89,6.44-13.88.59-.68.62-1.21.39-2.07-.54-2.01-1.07-4.06-1.23-6.12-.32-4.17.67-8.17,2.09-12.06.11-.3.46-.69.72-.71,1.12-.07,2.3-.23,3.36.04,5.04,1.28,9.81,3.28,14.16,6.12,1.85,1.21,3.48,1.39,5.69.96,4.72-.93,9.54-1.47,14.34-1.8,2.91-.2,5.88.2,8.8.54,3.17.36,6.3,1,9.47,1.42.94.13,2.07.25,2.86-.14,2.78-1.38,5.36-3.16,8.17-4.46,3.17-1.47,6.39-2.92,10.08-2.77,1.27.05,1.8.53,2.06,1.62.41,1.7.86,3.39,1.27,5.09.94,3.97.73,7.93-.56,11.75-.45,1.33-.18,2.12.62,3.03,4.38,4.97,6.24,10.93,6.57,17.41.11,2.07-.02,4.18-.31,6.23-.46,3.33-.89,6.7-1.77,9.93-2.27,8.29-7.54,14.03-15.28,17.8-5.35,2.6-11.01,3.62-16.84,4.46.66.78,1.35,1.5,1.94,2.3,2.72,3.66,3.01,7.99,3.11,12.29.15,6.35.03,12.71.05,19.06,0,.9,0,1.91.37,2.68,1,2.06,2.71,2.48,5.14,1.58,6.12-2.25,12.14-4.78,17.4-8.72,3.9-2.92,7.73-5.96,11.37-9.2,2.11-1.88,3.82-4.22,5.61-6.43,3.35-4.11,6.22-8.55,8.61-13.29,2.71-5.37,4.82-10.98,5.96-16.89.76-3.93,1.21-7.93,1.59-11.92.22-2.37.17-4.79.01-7.17Z"/>
</svg>