<?xml version="1.0" encoding="UTF-8"?>
<svg id="Layer_1" data-name="Layer 1" xmlns="http://www.w3.org/2000/svg" viewBox="0 0 150 150">

  <path class="cls-1" d="m149.9,94.37c-.02-3.71-.09-7.45-.57-11.13-.5-3.93-1.2-7.88-2.35-11.66-2.12-6.99-6.05-12.85-11.98-17.27-5.28-3.94-11.35-5.75-17.77-6.47-2.21-.25-4.49-.13-6.72.01-2.23.14-4.47.44-6.67.83-5.85,1.05-10.68,4.03-14.79,8.2-1.48,1.5-2.68,3.27-4.01,4.92-.28.35-.6.66-1.18,1.29v-12.92c-.1-.07-.19-.14-.29-.21-.34-.02-.68-.06-1.02-.06-9.8-.01-19.6-.03-29.39-.04-.37,0-.73.03-1.09.05v96.48c10.4,0,20.73,0,31.05.01,1.01,0,1.07-.58,1.05-1.33-.03-1.51-.05-3.03-.05-4.54,0-15.21-.02-30.42,0-45.62,0-2.22.07-4.46.36-6.65.82-6.17,4.37-10.5,9.68-13.39,3.09-1.68,6.5-1.8,10.01-1.36,4.03.5,7.17,2.4,9.47,5.56,2.95,4.06,3.74,8.93,3.8,13.74.2,15.64.1,31.29.12,46.94,0,2.18,0,4.35,0,6.57h32.43c0-.55,0-1.03,0-1.51-.02-16.82-.02-33.63-.1-50.45Z"/>
  <path class="cls-1" d="m1.99,50.18c.02,2.68.05,5.36.05,8.03,0,27.87,0,55.74,0,83.6,0,1.49,0,2.98,0,4.53h32.17V49.92H2.28c-.1.09-.19.17-.29.26Z"/>
  <path class="cls-1" d="m27.41,5.46c-1.71-.81-3.67-1.17-5.56-1.48-3.57-.58-7.14-.61-10.67.5C5.76,6.2-.4,12.5.02,20.14c.25,1.69.43,3.4.77,5.07.62,3.06,2.61,5.25,4.77,7.36,3.02,2.95,6.68,4.23,10.78,4.39,1.68.07,3.37-.06,5.04-.25,4.46-.5,8.4-2.25,11.24-5.75,3.15-3.88,4.47-8.39,3.58-13.45-.96-5.49-3.75-9.66-8.81-12.06Z"/>
</svg>